<?xml version="1.0" standalone="no"?>
<!DOCTYPE svg PUBLIC "-//W3C//DTD SVG 1.1//EN" "http://www.w3.org/Graphics/SVG/1.1/DTD/svg11.dtd" >
<svg xmlns="http://www.w3.org/2000/svg">
<metadata></metadata>
<defs>
<font id="james_fajardoregular" horiz-adv-x="1139" >
<font-face units-per-em="2048" ascent="1638" descent="-410" />
<missing-glyph horiz-adv-x="377" />
<glyph horiz-adv-x="2048" />
<glyph horiz-adv-x="2048" />
<glyph unicode="&#xd;" horiz-adv-x="569" />
<glyph unicode=" "  horiz-adv-x="377" />
<glyph unicode="&#x09;" horiz-adv-x="377" />
<glyph unicode="&#xa0;" horiz-adv-x="377" />
<glyph unicode="!" horiz-adv-x="442" d="M97 490q10 26 19.5 33.5t21.5 13.5q13 7 37 -5t36.5 -15.5t16 -18t-4.5 -42.5t-14.5 -40.5t-22 -14t-41.5 10.5t-42 32t-6 46zM203 939q-2 22 49 187.5t91 249.5t74 112t58 20t34 -30t-4 -66t-26 -62t-50 -84t-48 -88t-31 -103.5t-45 -119.5t-22 -52t-22 -38t-40 14 t-18 60z" />
<glyph unicode="&#x22;" horiz-adv-x="450" d="M66 1172q-8 8 0 32t90 168t91.5 155t23.5 20q15 9 43 5t32 -16t-4 -42t-46 -84t-54 -84t-36 -54t-28 -58t-15 -48t-22 -24t-31.5 -9t-26 16t-17.5 23zM244 1125.5q-1 22.5 9 58.5t28 68t23 49t18 30t35 41t40 60t21 49t20 26t29 20.5t28 21.5q16 11 34 7t24 -24t-8 -56 t-100 -150t-100 -148t-38 -60t-43 -20.5t-20 28z" />
<glyph unicode="#" horiz-adv-x="773" d="M56 678.5q8 31.5 57.5 34t61 8t19.5 57.5t-44 39.5t-69 3.5t-17 42t85 37t95 16t24 40t28.5 58.5t25 49t20 35t24 15t26 0t19 -18t-16.5 -78t19.5 -65.5t82.5 4t65.5 80.5t35 104.5t19 33.5t22.5 14.5q12 10 28.5 5.5t25.5 -13.5t10 -21t-16.5 -55t-37 -95t-16.5 -63.5 t46 -22t73 -11.5t27 -24t-61 -26t-80.5 1.5t-37 -22t-29.5 -74t43 -53.5t95 -3t41.5 -4.5t-18 -22.5t-49 -25.5t-81.5 -13.5t-76.5 -6.5t-40.5 -57.5t-19 -92.5t-13.5 -64t-44 -25.5h-35.5t3 50t20 98t0.5 58t-27 12t-70.5 4.5t-67 -12t-31 -59t-22 -71.5t-5.5 -41 t-19.5 -17.5t-29.5 -2t-17.5 13.5t-6.5 26.5t6 57.5t15 55t14 40t-40 31.5t-38.5 35zM278.5 722.5q3.5 -8.5 15 -9.5t73 -7.5t73 6.5t16.5 32.5t16.5 35.5t16 36t4.5 31t-9.5 14.5t-81.5 7.5q-71 5 -82.5 -14t-28 -71.5t-13 -61z" />
<glyph unicode="$" horiz-adv-x="965" d="M76 465q-3 18 10.5 32.5t85.5 22t96.5 15t39.5 57.5t44 119.5t37.5 99.5t4.5 34t-12.5 20t-23.5 27t-34 42.5t-33 69t-11.5 83.5t48 100t147.5 102.5t145.5 56t56 6t33.5 11.5t42 42t69 81t102 96q54 45 90.5 30.5t45.5 -32t8 -39.5t-15.5 -57t-34 -47.5t-33 13 t-28.5 12.5t-38 -40t-34 -51.5t33.5 -40.5t60.5 -22t29 -20.5t28 -34t7.5 -28t-41.5 -16t-82.5 2.5t-72.5 7t-40 0.5t-41 -20t-64.5 -81t-54 -92t-37.5 -63.5t-27.5 -59.5t-2.5 -36.5t25.5 -31t36 -39t17.5 -35t12 -45t-11 -66.5t-47 -70t-127 -81.5t-116.5 -83t-39.5 -67 t-42 -144t-65 -164t-21 54t21.5 140t5 85.5t-10 63t-56.5 3.5t-46 2t-20 12.5t-15 27t-4 36.5zM407 1094.5q-11 -24.5 2.5 -60t32.5 -53t31 -13t69 113t72 126t-18 5.5t-59 -17t-61 -26.5t-46.5 -36t-22.5 -39zM432.5 638.5q-20.5 -49.5 23 -21t61 41t28.5 29t4 38.5t-29 27 t-29 -17.5t-22.5 -35t-36 -62z" />
<glyph unicode="%" horiz-adv-x="1115" d="M84 520q-10 24 2 58t42 82t68 88t46 58t148 164t170 170t54 52t54 50t68 60t18 46t-102.5 21.5t-143 4.5t-65.5 -25.5t-1 -28.5t2 -48t-14 -60t-65 -50t-104 -16t-81 32t-40 38t-22 48t-8 38t6 28t18 60t48 84t60 70t56 34t36 16t34 4t44 -10t28 -24t22 -23.5t0.5 -43.5 t-45 -25.5t11.5 -14.5t61 -35t30 -14t52 -14t100.5 -6t98 14t77.5 20t62 18t44 6t38 -14t8 -34t-48 -58t-90 -66t-140 -120t-122 -112t-42 -38t-28 -26t-80 -76t-84 -98t-74 -82t-62 -68t-22 -32t-24 -30t-16 -34t10 -28t40 -8t46 6t64 22t151.5 58t-12 -18t-159.5 -80 t-64 -28t-48 -10t-46 0t-40 14t-26 34zM210 1314q0 -18 1 -34.5t12 -32t45 -23.5t48.5 -2.5t22 22t15.5 30.5t-10 64t-31 58t-30 12t-39 -20t-28 -40t-6 -34zM644 660.5q-37 10.5 16.5 42.5t89 39t77.5 35t68 36t46 8t28 -8t2 -42t-36 -53.5t-12 -37.5t40.5 -53.5t17 -106 t-48.5 -102.5t-75 -36t-62 0t-52 18t-38 32t-28 44t-14 48t8 74t-27 62.5zM769 566q-6 -30 6 -52t38 -28t48 6t31.5 35.5t-5.5 56.5t-44 34q-28 2 -48 -10t-26 -42z" />
<glyph unicode="&#x26;" horiz-adv-x="1130" d="M88 533.5q0 35.5 28 68.5t66 58t61 32t35 21t-2 31.5t-19.5 40t-3.5 50.5t9 53t19 59t51.5 90t83 88.5t64.5 41.5t47 7t49 -10.5t38.5 -22.5t26 -35t18.5 -67t-1.5 -98.5t-23.5 -78t-16 -42t26 -18.5t80.5 1.5t79 -1.5t47.5 -14t44.5 -19.5t63 -78t4 -13t-89 57 t-138 -11.5t-89.5 -17.5t20.5 -15t66.5 -21t62 -15t3 -28.5t-35 -28t-50.5 -8.5t-96 17.5t-92.5 12.5t-49.5 -19t-47.5 -35.5t-68.5 -54.5t-93 -40t-96 -10.5t-62.5 19t-19 54.5zM192.5 549.5q-3.5 -8.5 17.5 -10.5t68 21t71.5 45.5t6.5 22.5q-17 0 -45 -8.5t-71.5 -35 t-47 -35zM358.5 805.5q12.5 -29.5 35.5 -40t64 -9t64.5 45.5t41 128t10.5 107t-18 29t-37 10q-25 4 -58.5 -25.5t-51 -50.5t-28 -45.5t-23 -72t0 -77z" />
<glyph unicode="'" horiz-adv-x="189" d="M97 1091q-2 20 2 42t112 160t144 152t58 8t33.5 -22.5t16 -34t-9.5 -21.5t-70 -48t-126 -120t-90 -120t-34 -42t-24 14t-12 32z" />
<glyph unicode="(" horiz-adv-x="564" d="M68 864q6 64 51.5 216t144 291.5t177 211t104.5 82.5q27 12 63 8t66.5 -13.5t49 -49.5t19 -55t-26 -30t-53 -4t-55 9.5t-84 -34t-125.5 -118t-118.5 -177t-80 -226t-18 -227.5t39.5 -144t79 -106t139 -76.5t82.5 -65t-13 -47.5t-68.5 0t-123.5 47.5t-112.5 91.5 t-89 146.5t-47.5 152t-0.5 117.5z" />
<glyph unicode=")" horiz-adv-x="487" d="M-71 1574q0 13 15 39t54 32q39 7 94.5 -5.5t114 -64.5t98.5 -143t58 -139.5t43 -153.5t-5.5 -294t-81 -281t-94 -128t-83 -62t-86.5 -49.5t-61.5 -25.5t-29 3.5t-25.5 29.5t2.5 46t55.5 22t72 22.5t44 37t32 31t63 112t59.5 149.5t24 112t2 177.5t-33 193.5t-38 97.5 t-49.5 90.5t-83 92t-82.5 20t-58 10.5t-21.5 28.5z" />
<glyph unicode="*" horiz-adv-x="667" d="M57 1410q-4 6 0 22t18 30t24 34t50 64t60 54t42 4t40 -16t38 -14t36 90t26 112t24 32t36 6t24 -22t-10 -96t4 -92t36 0t93 33t85 18t20 -29.5t-32 -49.5t-117.5 -51.5t-97 -30.5t-11.5 -20t92 -80t68 -88t-30 -32t-25.5 -11t-73 51t-66.5 33t-19 -63t-25 -62.5t-23 -28 t-32 -7.5t-20 34.5t6 62.5t19 75.5t-1 61.5t-118 -16t-120 -22t-20 14zM189 1503.5q-32 -36.5 36 -15t53.5 34.5t-36.5 15q-21 2 -53 -34.5z" />
<glyph unicode="+" horiz-adv-x="837" d="M26 814.5q3 29.5 22.5 44t27 24.5t21.5 13t38.5 13t133.5 34.5t109 46t-3 47t0 51.5t0 55.5t15 96.5t39 78q21 12 40.5 10t26 -10t16.5 -32.5t10 -54t-10 -83t-10 -104t-5 -60.5t13 -15t104.5 5t139 5t70.5 -1t50 14t-8.5 -8t-50 -30.5t-55.5 -36t-100.5 -35.5 t-94.5 -18.5t-55 -10t-31 -16.5t-19 -42.5t-1.5 -56t-3.5 -51.5t-8.5 -104t-21.5 -115.5t-47 -52t-57 -1t-25 49t13 73t18.5 117.5t20 124.5t5 49t-36 3.5t-64.5 -3.5t-75 -13.5t-59.5 -21t-48.5 -27.5t2 -37t1 -5t-39.5 38.5t-6.5 52.5z" />
<glyph unicode="," horiz-adv-x="301" d="M7 249q-6 18 6 26t38 60t27 70.5t-4 39t-15.5 35.5t-20 26t-10 28t7 29.5t17.5 23.5q11 12 33 12t34 -8t28 -34t31.5 -73t6.5 -90t-59 -93t-82 -60t-38 8z" />
<glyph unicode="-" horiz-adv-x="629" d="M19 752q-24 16 4 38t66.5 45t104 29.5t94.5 5t41.5 -0.5t24.5 5q13 5 82.5 -11t117 -16t65 -9.5t27 -7.5t5.5 -3.5t-30.5 -17t-34.5 -8t-19.5 -4t-19 -3.5t-19 -4t-59.5 -8t-96 -9t-71 -16.5t-31 -5.5t-60.5 -8.5t-94.5 -26t-57.5 2t-39.5 33.5z" />
<glyph unicode="." horiz-adv-x="284" d="M57 524q0 22 20 42t68 18t60 -14t16 -34t-20 -48t-54 -32t-60 20t-30 48z" />
<glyph unicode="/" horiz-adv-x="569" />
<glyph unicode="0" horiz-adv-x="557" d="M22.5 581q-9.5 45 4.5 93t76 186t64 154t-2.5 27t-30.5 21t-87 -47t-7 -2.5t81.5 82t49.5 27.5t35 1t51 -11q38 -11 87 -46.5t83 -83.5t52 -110t19 -101t-6 -72t-21 -61t-53.5 -67t-90.5 -66.5t-120.5 -35t-95.5 8.5t-52.5 37t-36 66zM123 600q2 -6 13 -18.5t30 -16 t41 -5t91.5 39.5t87 83t19.5 63t-7.5 64.5t-29 79t-40.5 55.5t-38 26q-17 7 -85.5 -143.5t-76 -186t-5.5 -41.5z" />
<glyph unicode="1" horiz-adv-x="458" d="M51 448.5q2 36.5 22 105.5t29.5 111t33.5 94.5t125.5 277t105.5 239.5q5 15 24 16.5t35.5 -12t22.5 -31t-146 -384.5t-181.5 -421.5t-46.5 -62.5t-16 -2t-4.5 19.5t-3.5 50z" />
<glyph unicode="2" horiz-adv-x="587" d="M-25.5 532q4.5 25 40 38t89 53t119 95.5t119 107.5t58 77.5t1.5 44.5t-16.5 39.5t-52.5 26.5t-58 -3t-28 -3.5t-19.5 14t-16 29t1.5 37.5t36 30.5t59 16.5q31 3 67.5 -6.5t66 -32t49.5 -61t23 -72t-6.5 -76.5t-37 -88t-87.5 -94t-78.5 -62t-50 -41t-11.5 -35t165.5 -12 t163 2t2 -11.5t-28.5 -35t-58 -31.5t-148 -15h-177.5t-126 1.5t-58 21.5t-2 45z" />
<glyph unicode="3" horiz-adv-x="607" d="M86.5 990q-0.5 10 7.5 32t20 42t30 34t40 22t80 2t80 -16t46 -16t76 -48t62 -62t8 -32t2 -22t-4 -34t-22 -42t-30 -32t-22 -30t10 -32t24 -38t2 -48t-48 -78t-116 -102t-120 -68t-58 -20t-14 12t-1.5 25t8 22t21.5 27t72 52t104 82t54 60t4 20t-28 10t-126 -30t-118 -28 t-24 20t2 40t30 38t44 18t58 18t95.5 53.5t80 62t6.5 38.5t-52 40t-92 32t-78 6t-54 -28t-43.5 -18t-16 16z" />
<glyph unicode="4" horiz-adv-x="646" d="M56 890q2 30 26 102t60 102t62 36t40 -12t6 -42t-34 -64t-34 -64t-12 -50t18 -38t52 -16t56 -2t46 16t106 196t132 220t76 34t36 -28t-12 -26t-72 -114t-62 -138t-20 -46t-14 -32t27.5 -2t83.5 102t7 4t-79.5 -140.5t-44.5 -56t-30 -17.5t-32 -34t-36 -64t-41 -121 t-19 -125t-11 -55t-29 -11t-24 0t-16 30t-10 74t16 134t-5 89t-67 13t-71 23t-43 29t-26 40t-6 54z" />
<glyph unicode="5" horiz-adv-x="682" d="M-38.5 442.5q5.5 4.5 16 -1t60 4.5t55.5 8.5t83.5 52t88 94t-3 72t-28 92.5t-8.5 105.5t11.5 59t10 37.5t19 49.5t-10 32.5t-29 18.5t4 24.5t32 23t58 5.5t52.5 28t39 44.5q22 11 49 12.5t34 -6.5t4 -34.5t-22 -42t95.5 -17.5t168.5 -16t80 -21t140 -13.5t-15.5 -4 t-244.5 -15t-148.5 -18.5t-63.5 -6.5t-53.5 -14.5t-43 -22t-42.5 -82t-14 -92.5t22.5 -99t8.5 -101.5t-29.5 -65.5t-60 -71.5t-56 -47t-49.5 -21.5t-79.5 -9t-81 8.5t-43 28t-7 21.5z" />
<glyph unicode="6" horiz-adv-x="580" d="M81 582q-4 30 0 36t18 82t28 112t48 94t76 110t66 74t54 42t64 32t82 -6t36 -38t-42 -30t-58 -28t-98 -92t-100 -138t-40 -98t-10 -48t26 -6t62 -2t64 -30t46 -50t14 -70t-62 -78t-96 -44t-72 10t-47.5 24.5t-22 24t-20.5 51.5t-16 66zM193 562.5q7 -21.5 12 -31t16 -16 t35.5 -10t38 6.5t16.5 23.5t-9 22t-26.5 16t-38.5 10t-38 1.5q-13 -1 -6 -22.5z" />
<glyph unicode="7" horiz-adv-x="641" d="M98.5 1089.5q-1.5 22.5 5.5 39.5t26 22t107 17t124 16q36 5 74 8.5t84 -8t46 -46t-4 -40.5t-12 -44t-142 -248t-144 -246t-12.5 -52.5t-16 -30t-33 -11.5t-26 22t-8.5 46t16 76t52 112t54 92t80 116t72 118t-30 36t-152 -16t-116 -18t-24.5 9.5t-20 30z" />
<glyph unicode="8" horiz-adv-x="807" d="M45.5 564.5q8.5 60.5 50 108t61.5 63.5t35 32.5t14 48t-6.5 54.5t1 73t37.5 97t65 79t82 50t76 10t46 -22t26 -40t-12 -40t-48 -8t-50 -6t-54.5 -51t-41.5 -62t-9.5 -43.5t5.5 -34t22 -9.5t38 16t108 58t122 78t53.5 55t36 62.5t-51 127t10 -8.5t87.5 -122t10 -56 t-10 -52t-64 -72t-92 -76t-84 -48t-108 -60t-70 -60t4 -74t4.5 -100t-22 -72t-38.5 -36t-50 -18t-73.5 2t-72 28t-36.5 44t-1.5 84.5zM141 544q0 -20 20 -31t40 -7.5t28.5 29t4.5 45t-10.5 30t-14.5 16.5t-26 -6t-30 -34t-12 -42z" />
<glyph unicode="9" horiz-adv-x="624" d="M66 808q-6 12 16 56t32 62t58 80t90 104t74 64t54 30t70 14t70 0t36 -22t8 -34t-14 -64t-84 -248t-108 -280t-48 -116t-36 -46t-40 -4t-26 26t20 80t54 112t52 134t42 116t18 50t-17 -13t-44 -52t-87 -77t-80 -60t-44 -4t-38 18t-18 38t-10 36zM181.5 853.5 q-0.5 -18.5 27 -4t55 44t50 56t36.5 36.5t51.5 59t13.5 48q-23 -1 -41 -15t-46 -44t-42 -44t-59 -66t-45.5 -70.5z" />
<glyph unicode=":" horiz-adv-x="368" d="M75 532q4 26 11.5 35.5t17.5 17.5q11 9 41 3t44 -8.5t20 -16t12 -29.5t-22 -36t-50 -24t-30 -2t-28 18t-16 42zM167 946q0 36 9.5 48.5t23.5 21.5q15 10 32 7.5t30 -16t11 -25.5t6 -36t-3.5 -34.5t-16 -28t-16.5 -51.5t-27 -27.5t-22 24t-17 49.5t-10 68z" />
<glyph unicode=";" horiz-adv-x="358" d="M-49.5 319q3.5 8 29.5 6.5t59 7t51.5 30.5t21.5 36t-7.5 43.5t-8.5 51.5t8 33.5t16 23.5t42.5 4.5t53.5 -41.5t16 -91t-19 -82t-32 -46.5t-49.5 -34.5t-40.5 -19.5t-60.5 5t-67.5 38.5t-12.5 35zM203 866q9 13 24 22q15 10 49.5 4.5t47.5 -38.5t14 -49.5t-7 -34.5 t-20 -27t-18 -25.5t-37 -3t-40.5 26.5t-5 31.5t-6 49.5t-1.5 44z" />
<glyph unicode="&#x3c;" horiz-adv-x="629" d="M57 808.5q0 35.5 15.5 56t60 51.5t238.5 132q195 101 215 91.5t27.5 -28.5t-2.5 -39t-24 -32.5t-61.5 -41t-81.5 -39.5t-50 -23t-49 -25.5t-63.5 -34t-49 -26t-32 -16t-19 -23.5t152 -184t165 -188t-9 -24.5t-33.5 -9t-31.5 13t-33.5 22t-34.5 18t-38 41.5t-96 93.5 t-119.5 121t-46 94z" />
<glyph unicode="=" horiz-adv-x="1196" />
<glyph unicode="&#x3e;" horiz-adv-x="664" d="M83 1158q6 22 20 32t34 4t34 -18t62 -42t58 -44t26 -24t40 -36t40 -36t82 -72t88 -90t26 -46t-6 -60t-36 -66t-60 -42t-46 -32t-32 -20t-50 -26t-70 -32t-66 -36t-44 -32t-38 -2t-22 26t2 38t14 34t58 44t76 52t82 46t68 34t24 26t6 34t-170 160t-186 172t-14 54z" />
<glyph unicode="?" horiz-adv-x="696" d="M115 474q-12 27 4 48q17 22 37 23.5t30.5 -6t37.5 -17.5t46 -26.5t11.5 -28t-22.5 -16t-44.5 -14.5t-58.5 0t-41 37zM189.5 759.5q-0.5 32.5 20 72.5t45.5 66.5t62.5 60t74 55t63.5 44.5t58.5 67.5t42 79.5t0 47.5t-28 27.5t-57 18t-77.5 -16t-52.5 -29.5t-33.5 -42.5 t-36.5 -27.5t-26 21t-13 42t25 61t71.5 60t88 35.5t84.5 3t69.5 -19.5t56.5 -39.5t34 -50t6.5 -66.5t-16 -70t-39 -65.5t-101.5 -97.5t-125 -91t-101.5 -103t-73.5 -72.5t-21 29.5z" />
<glyph unicode="@" horiz-adv-x="982" />
<glyph unicode="A" horiz-adv-x="861" d="M-54 469q10 34 70.5 126.5t140.5 190.5t133 158.5t95.5 119t96.5 129.5t100 118q42 43 59 43h3q16 -4 30 -16t16 -28t2.5 -53t6.5 -51t18 -90t13 -92.5t9 -49.5q5 -22 41 -22q18 0 44 6q78 17 154 38q75 20 111 32q7 2 8 3q5 1 -84 -37q-112 -46 -156 -73.5t-79.5 -54.5 t-36.5 -64.5t-8.5 -103.5t-15.5 -116t-12 -82t-22 -62t-40 -34t-36 14q-8 10 -8 39q0 19 4 49q10 70 20 126t19 121q1 10 1 18q0 41 -34 41q-4 0 -9 -1q-51 -7 -107 -15t-112 -15t-93.5 -25.5t-132 -147t-123.5 -168.5t-52 -40t-33 18q-5 9 -5 22q-1 12 4 29zM418 888 q62 14 148 24q84 9 83 35q-1 18 -11 58q-8 28 -18 98q-7 46 -21 46q-7 1 -17 -11q-28 -36 -52 -68q-25 -32 -99 -114q-41 -45 -41 -61q0 -9 13 -8q6 -1 15 1z" />
<glyph unicode="B" horiz-adv-x="682" d="M-20 403q0 31 30 129q30 100 66.5 220t108.5 358t77.5 286.5t33.5 77.5q26 27 49 27h3q24 -2 35.5 -17t15 -35t-2 -38.5t-19.5 -51.5t-3 -44t29.5 -5.5t57.5 8.5q6 0 11 1q33 1 66 -15q38 -18 69 -60t36 -98q2 -17 2 -32q-1 -34 -9 -62q-12 -38 -44 -78.5t-28.5 -44.5 t31.5 -18.5t55 -46.5q28 -34 28 -64q0 -2 -1 -4q1 -28 -5 -66q-6 -40 -62.5 -104.5t-143.5 -107t-119 -55.5t-73 -24t-63 -7t-39 11t-20.5 20t9 33t44 29t96 31.5t124 55t109.5 78.5q44 40 44 77v11q-8 44 -58 54q-11 2 -24 3q-48 0 -122 -30q-94 -38 -120 -50t-40 3t-25 2 t-30 -72.5t-45 -149t-44 -138.5q-18 -50 -42 -59q-15 -6 -24 -6q-6 1 -10 3q-10 6 -11 20q-3 18 -3 45zM230 906q-1 -3 -1 -6q0 -21 35 -21q12 1 27 3q68 10 113 36.5t74 54.5t42 52q12 24 22 57q6 21 7 42q-1 12 -3 24q-6 32 -34 52q-30 20 -70 22q-7 0 -13 1 q-34 -1 -69 -11q-42 -12 -82.5 -141t-47.5 -165z" />
<glyph unicode="C" horiz-adv-x="617" d="M53 629q-2 18 -2 37q0 45 12 91q17 65 49.5 116.5t83 119.5t144.5 142.5t141 108.5t97 64q39 23 69 23q9 0 17 -2q36 -9 54 -32.5t7.5 -53t-36.5 -36.5t-63 -19.5t-81.5 -42t-113.5 -86.5t-138 -129.5t-95 -145.5q-28 -74 -30 -104q-1 -6 0 -13q0 -25 8 -52 q10 -35 32 -55t55 -28q24 -6 51 -7q8 0 18 1q36 3 93 8t148 30t185 75t123 80q14 14 14 12.5t-17 -22.5q-32 -40 -91 -78t-175 -103.5t-171 -83.5t-109 -23q-21 -2 -41 -2q-29 1 -57 5q-46 8 -76 28t-64 67t-41 110z" />
<glyph unicode="D" horiz-adv-x="695" d="M30 460q-1 6 -1 15q0 33 9 111q12 101 119 428t112.5 349t18.5 38.5t30 29.5q13 10 30 10q6 1 14 -1q26 -4 39 -21.5t18.5 -41.5t-6 -40t3 -25.5t102 -38t142 -67.5t90 -95t41.5 -80q6 -26 5 -76q-1 -49 -25 -87q-26 -40 -67 -88.5t-90.5 -101.5t-136 -108t-167.5 -87.5 t-159 -45.5q-57 -9 -83 -9q-10 0 -16 1q-19 5 -23 31zM138 540q1 -2 8 -2q16 0 72 15q76 21 137.5 54t146.5 104t135 143q49 70 49 108t-30 89q-29 49 -80.5 79.5t-115.5 49.5q-63 20 -93 30q-5 2 -9 2q-22 0 -38 -46q-18 -54 -32 -93.5t-32.5 -96.5t-63.5 -212 q-46 -156 -52 -186q-4 -18 -3 -28q-1 -7 1 -10z" />
<glyph unicode="E" horiz-adv-x="771" d="M134 777q6 103 45 251.5t86 233t69 90.5q8 2 16 2q13 0 26 -6q20 -10 28 -32q6 -16 6 -38q0 -7 30 -7q32 -1 98 7q81 10 172 11q55 0 113 -4q154 -10 224 -26t76 -30q4 -8 4 -14q0 -4 -2 -6q-4 -6 -44 -20q-31 -11 -71 -11q-11 0 -23 1q-31 2 -62 2l-46 -1 q-54 -3 -156.5 -3t-233 -7.5t-151 -34.5t-30.5 -69q-2 -9 -2 -16q0 -28 29 -35q37 -9 139 -15q76 -4 110 -5q11 0 18 1q26 2 50 -2t40.5 -5.5t60.5 -3.5q22 -1 39.5 -1t30.5 1q26 2 22 -8t-16 -26t-70.5 -30.5t-174.5 -20.5q-54 -3 -102 -3q-56 0 -106 4q-26 2 -45 2 q-50 0 -60 -13q-13 -18 -21 -66q-6 -35 -6 -75q0 -15 1 -31q3 -60 20.5 -112t57.5 -67q19 -7 46 -7q31 0 71 9q76 17 160.5 61.5t104.5 54.5t60 22t52 2t2 -30t-26 -32t-71.5 -42t-108 -62t-105 -52.5t-100.5 -30.5t-74 -10t-48 6t-56 30t-54 62t-34 96q-10 41 -10 103 q0 27 2 58z" />
<glyph unicode="F" horiz-adv-x="570" d="M46 901q38 8 62.5 25.5t71 139.5t70.5 192t55.5 136t40 78.5t38.5 19.5q13 3 21 3q11 1 15 -5q6 -10 12 -38t0 -46.5t-16 -43.5q-10 -24 6 -25h1q18 0 121 32t138 32h2q34 -1 60 -22.5t38 -35.5q8 -9 8 -26q0 -9 -2 -20q-6 -32 -28.5 -64.5t-52.5 -45.5t-90 -45t-168 -66 q-33 -10 -39 -11q-2 0 -2 1q0 5 112 53q179 77 202.5 113t7.5 50.5t-60 7t-110.5 -18.5t-124 -31.5t-76.5 -47.5t-38.5 -64.5t-36 -83.5t-17 -58.5t30.5 0t141.5 28.5t214.5 18h45q55 0 55 -4q-3 -6 -56.5 -15t-122 -28t-133 -44.5t-109.5 -49t-76 -32t-61 -144t-44 -175.5 t-21 -71.5t-19 -46t-27 -20.5q-5 -2 -10 -2q-11 0 -23 9q-18 13 -10 54t14 89t20 124t23.5 116.5t-21.5 36.5q-32 -5 -52 11q-19 15 -19 33q0 20 39 28z" />
<glyph unicode="G" horiz-adv-x="698" d="M44 781q12 104 44.5 178.5t94.5 161t124.5 145t112.5 83t105 34.5q42 8 70 8q9 0 16 -1q31 -3 53.5 -13.5t41.5 -24.5t48 -43.5t34 -58.5q2 -14 2 -24.5t-2 -15.5q-5 -12 -17.5 -38.5t-31.5 -3.5t-43.5 55.5t-71.5 45.5q-31 8 -58 8q-16 0 -32 -3q-41 -7 -95.5 -37 t-125.5 -116t-102.5 -137.5t-53.5 -138.5q-9 -35 -9 -68q0 -47 20 -89q32 -71 92 -102q19 -11 40 -11q42 0 88 43q68 64 134 154q58 81 106 81q6 0 12 -1q41 -8 41 -39q0 -9 -4 -21q-16 -48 -31 -142.5t-28 -171.5q-14 -77 -71 -77h-1q-36 1 -36 46q0 30 16 80q18 61 18 82 q0 10 -4 10q-6 0 -16 -11q-40 -44 -85.5 -79t-86.5 -43q-14 -3 -33 -3q-33 0 -78 9q-71 14 -139 100q-59 73 -59 159q0 15 1 30z" />
<glyph unicode="H" horiz-adv-x="848" d="M32 230q-1 1 -1 6q0 27 44 165q52 163 70 211q7 19 7 33q0 20 -16 27q-28 11 -31.5 33t2 42.5t41 41t52 33.5t33.5 52t33.5 81.5t63.5 167t93 241.5t54.5 121t16.5 11q4 4 12 4q6 0 18 -4q22 -8 31.5 -44.5t4 -42.5t-13 -26t-29.5 -78t-85.5 -223t-83 -212.5t2 -39 t45.5 12t72.5 13t120.5 30t83.5 29.5t26.5 52t61.5 195t48.5 163.5t15 7.5t30 -15q16 -12 19 -30q6 -30 6 -36q0 -20 -20 -98q-22 -86 -31.5 -134t-4 -55t48.5 4q8 2 15 2q30 0 30 -40q0 -44 -51 -59q-52 -15 -67 -21t-28 -45.5t-58 -164t-63 -169.5q-18 -46 -54 -96 q-13 -18 -20 -18q-5 0 -5 12t6 40q17 84 24 104.5t15 67.5q6 46 18 98q17 78 18 95q0 19 -28 19q-24 0 -64 -12q-96 -28 -184.5 -54.5t-107 -65.5t-70 -195.5t-65.5 -200.5t-36 -62q-11 -9 -21 -10q-10 0 -18 10q-16 18 -26 26z" />
<glyph unicode="I" horiz-adv-x="452" d="M-30 456q-1 10 -1 18t1 12q2 6 8.5 16t20 11t64.5 24t65.5 87t52.5 197.5t56 194t66 189.5q25 66 25 95q0 23 -15 23q-3 0 -7 -1q-40 -11 -41 -69q0 -8 1 -16q2 -20 2 -31q0 -13 -3 -13q-3 -1 -9 19q-14 42 -14 77v10q2 38 19.5 61.5t40 33.5t54.5 13t49 25t31 45.5 t36 39.5q20 14 33 14h4q14 -3 23.5 -16t27.5 -33.5t16 -26.5t-17 -31t4 -33.5t46.5 -17.5t49.5 -26t29.5 -29.5t8.5 -29t1 -41.5t-18 -7.5t-68 38.5t-89 26.5t-55.5 -14t-29 -41.5t-44 -111.5t-44.5 -115.5q-12 -28 -83 -246q-49 -151 -49 -206q0 -26 10 -32 q32 -20 56 -33.5t22 -28.5q0 -15 -10 -29q-9 -13 -59 -13h-11q-60 2 -135 4h-20q-57 0 -73 -8q-12 -6 -19 -6q-5 0 -5 2q-2 6 -4 30z" />
<glyph unicode="J" horiz-adv-x="714" d="M0 566q1 21 1 58q0 8 31 70q34 68 61.5 95t105 83t233.5 117q68 27 73 27q6 0 -91 -44q-172 -77 -232.5 -140.5t-75.5 -131.5q-14 -62 -14 -104v-8q2 -44 13 -61t23.5 -23.5t43.5 -7.5h2q31 0 102 22q74 24 133.5 90.5t92.5 116t57.5 106.5t31.5 86t20.5 74.5t38.5 150.5 t28.5 149.5t3.5 66.5t-8 41.5t-1.5 31t15.5 23.5q6 8 24 8q8 0 20 -2q35 -6 53.5 -30.5t22.5 -58.5q2 -20 2 -40q0 -15 -2 -30q-2 -36 -6.5 -67t-15.5 -82t-35.5 -144t-83 -218.5t-90 -172.5t-63.5 -80.5t-78 -72t-106 -61t-122 -27.5h-25q-44 0 -71 13q-34 17 -60 34.5 t-42 52.5q-12 28 -12 66q0 11 2 24z" />
<glyph unicode="K" horiz-adv-x="801" d="M6 340q4 44 25.5 102t40 120t69 205.5t61.5 160t27.5 56.5t42 127t43.5 123.5t41.5 94.5t29 80t15 51t25.5 49t32 31q9 6 19 6q9 0 18 -4q20 -10 25 -34q6 -24 17 -40q2 -3 2 -9q0 -25 -35 -99q-44 -92 -91 -204t-75 -182q-20 -50 -19 -72q0 -10 3 -14t8 -3q19 0 70 38 q67 50 121.5 92.5t149.5 127t127.5 108t51 27.5t44.5 -7t36 -29q5 -9 5 -18q1 -8 -5 -18q-10 -18 -30.5 -42t-57 -40.5t-80 -56.5t-62 -50.5t-64.5 -52.5q-46 -43 -132 -103q-41 -28 -40 -56q0 -31 52 -63q98 -60 132 -80t58 -25.5t44 -14.5t30.5 -21.5t-5.5 -25.5t-38 -15 q-11 -1 -28 -0.5t-39 0.5q-46 2 -80.5 16.5t-72.5 33t-69 43.5t-49.5 34.5t-67.5 45.5q-41 30 -59 30q-3 0 -6 -1q-16 -7 -39 -91.5t-87 -237.5t-92 -163q-10 -3 -17 -3q-14 0 -20 12t-6 37q0 11 1 24z" />
<glyph unicode="L" horiz-adv-x="627" d="M-14 504q-1 3 -1 8q1 22 21 76q24 62 51.5 110t82.5 173.5t77.5 180.5t26.5 76.5t-15 4t-28 0t-11 36.5t11 55.5t36.5 88t42.5 68.5q14 12 32 12q9 -1 18 -3q30 -8 40 -36q8 -20 8 -56q0 -14 -1 -30q-4 -58 -8.5 -86t-21.5 -88.5t-30 -84t-58 -122.5t-81.5 -174t-39 -90 t6.5 -21q1 -1 5 -1q30 1 250 49q246 54 308 72.5t104 44.5q25 15 25 11q0 -2 -12 -16q-29 -32 -88.5 -62t-84 -50t-139 -69.5t-209 -67t-148.5 -39.5q-48 -19 -79 -19q-4 1 -7 1q-32 2 -56 14t-28 34z" />
<glyph unicode="M" horiz-adv-x="1363" d="M42 561q6 27 19 46t19 44.5t60.5 158.5t74 197.5t64 182.5t82.5 174q28 41 53 41q10 1 18 -5q32 -20 33 -39t22 -63t47 -118t34 -210q9 -136 34 -176q8 -12 20 -11q29 1 84 65q79 94 143 170t127 132.5t95 87.5q33 32 87 74q49 38 74 39q4 -1 6 -1q26 -4 42 -18t24 -40 q3 -8 3 -24q0 -36 -13 -114q-19 -112 -36 -223t-23 -193q-2 -30 -2 -51q1 -38 7 -50q10 -19 28 -23.5t44 12.5t68 71q13 17 16 17q1 0 1 -1q0 -7 -40 -77q-65 -116 -113 -136q-32 -14 -53 -14q-10 0 -17 4q-21 10 -36 29q-16 19 -30 67q-10 34 -10 72q0 16 2 32q6 54 21 159 t21 145q8 40 16 99q2 12 1 20q0 24 -13 25q-6 0 -14 -5q-34 -19 -109 -105t-178.5 -214t-146 -150t-63.5 -24.5t-53 6t-63 33t-43.5 100.5t-24 181t-23.5 155q-3 12 -9 12q-20 0 -73 -125q-69 -163 -97 -243.5t-59.5 -157.5t-48.5 -93.5t-44 -10t-44 21.5q-13 11 -13 29 q0 6 2 13z" />
<glyph unicode="N" horiz-adv-x="1054" d="M40 594q0 30 40 130t74 184t46 102t32 82t56 148t54 116t36 42q8 4 17 4q12 0 27 -8q26 -14 36 -32t28 -30t26 -26t22 -60t16 -124t6 -116t14 -84t34 -138t44 -130t42 -74t44 -40t50 28t46 102t68 194t78 219t76 154t83 83t70 25t49 -2t20 -19q2 -4 2 -9q0 -11 -12 -21 q-16 -14 -56 -64t-84 -124t-62 -122t-64 -194t-58 -164t-26 -64t-50 -98t-60 -58q-9 -2 -22 -2q-21 0 -52 6q-50 10 -70 20t-36 24t-42 48t-56 118t-44 130t-26 110t-22 148q-9 75 -23 75q-2 0 -3 -1q-16 -10 -28 -26t-56 -90t-80 -156t-68 -168t-51 -111t-42 -16t-33 29 t-10 50z" />
<glyph unicode="O" horiz-adv-x="771" d="M105 757.5q0 42.5 9.5 86t21 71.5t41.5 87t92 148.5t105 130.5t87 73.5t128 60.5q62 21 90 21q10 0 16 -3q22 -10 30 -26t14 -40t-6 -40t-72 -52q-56 -34 -56 -46q0 -11 22 -26q18 -12 52 -64t58 -112t26 -82t2 -44t-12 -94t-32 -110t-79.5 -103t-110 -91t-96.5 -37 t-92 -11t-68 8t-56 32t-68 78t-40 98t-6 86.5zM241 756q-2 -18 -2 -35q0 -25 4 -46q6 -36 20 -54t62 -34q27 -9 54 -9q19 0 39 5q46 12 104.5 56t72.5 60t26 38t18 46t8 54v8q0 31 -12 96q-14 74 -44 108t-42 54t-21.5 24.5t-25.5 16.5q-4 3 -10 3q-16 -1 -48 -25 q-44 -34 -95.5 -108.5t-77.5 -144t-30 -113.5z" />
<glyph unicode="P" horiz-adv-x="728" d="M6 416q-1 2 -1 7q0 29 41 162q48 155 104 287t62 160t12 34t22 82q5 25 6 42q0 35 -23 35l-1 -1q-15 0 -15 11q0 12 21 39q40 50 74 82t48 54t24 37t22 37t32 34q11 7 24 7q11 0 22 -5q26 -10 38 -30t6 -35t-14 -39t-10 -42t4 -24t96 -50t122 -80t44 -56t20 -48t10 -54 q0 -6 1 -14q0 -22 -5 -52q-6 -40 -64 -100t-100 -86t-90 -44t-126 -40t-110 -24t-68 -4t-46 -26t-32 -68t-39 -103t-35 -80q-16 -20 -39 -20q-1 1 -3 1q-26 0 -34 14zM248 832q-2 -5 -2 -9q0 -13 28 -13q12 0 30 2q70 10 173.5 45.5t148 89t46.5 75.5q1 7 1 15q0 15 -3 29 q-4 22 -28 54t-84 54t-82 26q-3 1 -6 1q-20 0 -46 -23q-30 -26 -64 -102t-66 -145t-46 -99z" />
<glyph unicode="Q" horiz-adv-x="943" d="M106 702q-8 31 -8 63q0 41 13 83q23 74 75 158t91.5 122.5t88 83.5t111.5 79.5t105 50.5q34 13 54 13q6 0 10 -1q22 -4 38 -2t38 -12t52 -44t32 -58t-16 -54q-8 -11 -20 -11q-15 0 -38 19q-40 34 -106 34t-147.5 -66t-138 -143.5t-82.5 -126.5q-27 -48 -27 -112 q0 -67 36 -114q35 -45 80 -57t111 -23q20 -3 34 -3q33 0 36 17q4 24 30 74q20 38 37 38q6 0 11 -4q22 -16 30 -38t28 -18t59 41t63 83t36 116q5 28 5 52q0 39 -12 70q-19 50 -37 54t-48 -2t-36 -10t-48 -4t-22 30t42 38t72 16q19 3 37 3q29 0 55 -8q43 -13 74.5 -53.5 t34.5 -115.5q1 -12 1 -24q0 -60 -13 -107q-15 -56 -37.5 -98.5t-55.5 -81.5t-115.5 -87t-88.5 -70q-4 -16 -4 -44v-20q2 -42 4 -90v-19q0 -34 -6 -52q-8 -22 -20 -28q-2 -1 -5 -1q-11 0 -25 19q-18 24 -26 44t-18 36.5t-14 78.5q-4 57 -37 57q-3 0 -7 -1q-20 -3 -43 -3 t-49 3q-52 6 -96 22t-62 28t-58 60t-58 120z" />
<glyph unicode="R" horiz-adv-x="860" d="M14 421q-8 8 -8 25q0 28 22 81q35 85 65 137t104 222t114 262t68 144t76 128t78 86q27 9 43 9h3q16 -1 32 -10t24 -43t42 -40t64 -16t68 -54q39 -44 57 -98q11 -32 11 -77q1 -30 -5 -66q-12 -89 -91.5 -166.5t-133 -121t-96 -59.5t-18 -34.5t63 -52t119.5 -91.5 q82 -58 82 -89q0 -13 -19 -12q-25 1 -85 23q-104 40 -241.5 118t-169.5 86t-48 -16t-72 -130t-76 -128t-36 -30q-4 -2 -9 -2q-13 0 -28 15zM355 834q18 -9 38 -9q19 1 40 9q42 18 104 54t125.5 108.5t70 128t7.5 90.5v1q0 34 -46 61q-38 22 -71 22q-8 1 -16 -1 q-40 -6 -61.5 -29.5t-42 -54t-54.5 -82.5t-84 -162q-48 -106 -48 -114q0 -3 38 -22z" />
<glyph unicode="S" horiz-adv-x="506" d="M7 498v5q0 27 18 61q20 38 63 82.5t74 54.5q30 11 54 35q11 12 11 43q1 35 -13 94q-17 75 -17 136q0 31 4 58q13 81 35 126.5t70 98t84.5 75.5t70 42t70.5 30q27 9 49 9q8 0 16 -2q28 -4 51 -12.5t36 -29.5t17 -47q1 -7 1 -14q0 -18 -8 -35q-11 -23 -26 -40t-27.5 -37.5 t-35.5 -28.5q-24 -8 -34 0q-3 2 -4 10q0 16 16 54q12 29 11 45q1 15 -9 19q-20 8 -48 0.5t-79.5 -55t-85.5 -109.5q-35 -62 -41 -102q-4 -26 -3 -51q1 -13 1 -27q4 -38 13 -96t19 -104q6 -27 7 -62q1 -26 -3 -57q-8 -74 -37 -122t-54 -81.5t-57 -54.5q-34 -21 -74 -23 q-9 -1 -17 -1q-27 1 -45 7q-22 8 -46.5 43t-26.5 63zM104 504q8 -2 16 -2q7 0 14 2q15 4 27 16t33 31t33 48q11 26 11 46v5q-2 22 -17 47q-4 6 -10 6q-19 0 -67 -59q-58 -73 -59 -103q0 -32 19 -37z" />
<glyph unicode="T" horiz-adv-x="807" d="M8 1178q4 4 34 28q32 23 64 39q27 13 166 13h56q190 -3 229.5 -5t83.5 -4.5t148 -11.5t136.5 -14t114.5 -12t109 -29q14 -11 14 -21q0 -11 -12 -19q-25 -18 -66.5 -18t-77.5 4t-55.5 5t-108.5 7q-76 5 -111 5h-10q-32 -1 -50.5 -21t-46.5 -51t-75.5 -96t-96.5 -146 t-92.5 -154.5t-43.5 -114.5t19.5 -55.5t50.5 -1.5t48.5 17.5t50 22.5t69.5 46t-3.5 -15.5t-61.5 -73.5t-79 -76.5t-97 -48.5h-7q-35 1 -63 19q-30 20 -36.5 64t-6.5 79t16 77t42 87.5t98 155.5q72 109 134 207q34 53 34 77q0 19 -22 19h-3q-52 -2 -151.5 -4t-149.5 -6 q-51 -3 -83 -18q-15 -7 -30 -7q-18 0 -36 9q-34 18 -40 28q-3 6 -4 9q0 3 2 5z" />
<glyph unicode="U" horiz-adv-x="999" d="M49 648q2 26 2 46.5t15.5 93t40 164.5t53 172t52.5 186.5t39 119.5q11 9 36 9q13 -1 29 -3q48 -6 56 -16q10 -12 11 -41q-1 -29 -35 -112q-36 -87 -78 -209t-66 -224q-22 -92 -23 -153v-13q2 -64 22 -70.5t40 0t97 66t205 181t211.5 220t103.5 124t37.5 36.5t35 13 t40 -6.5t33.5 -26t-1 -54t-64 -171.5t-74 -186q-23 -50 -27 -106q-2 -20 -1 -35q0 -27 5 -40q8 -20 40 -24q5 -1 11 -1q31 0 84 16q21 6 33 7q15 0 15 -10q0 -7 -6 -17q-22 -40 -70.5 -72.5t-86 -32.5t-31 -5.5t-17.5 -1t-55 31t-42 58.5q-9 28 -9 76v18q2 61 33 130.5 t57 116.5q5 9 4 12q0 2 -1 2q-10 0 -85 -77q-107 -110 -131 -131t-122.5 -111.5t-155.5 -121t-108 -32.5q-5 0 -10 -1q-44 0 -76 20q-35 22 -48 48.5t-17 68.5q-2 27 -2 47q0 11 1 21z" />
<glyph unicode="V" horiz-adv-x="869" d="M40 606q-3 36 -3 69q0 45 6 88q10 74 12.5 106t9.5 68.5t9 122.5q1 29 1 52q0 46 -3 70q-1 9 -1 17q0 25 11 49q15 32 42 36.5t37 2t29 -26.5q20 -26 25 -60q3 -23 3 -77v-63q-2 -106 -20 -208q-15 -90 -15 -159q1 -10 1 -19q2 -74 14 -79t39 15t76.5 59.5t71.5 61.5 t83.5 88.5t150 155t125.5 140t153 157.5q113 104 146 104h2q32 -2 49 -42q15 -34 15 -50q0 -18 -38 -21q-35 -2 -110.5 -86t-115 -133.5t-101 -118.5t-79 -96t-204.5 -197t-217 -184q-29 -16 -71 -18h-11q-35 0 -58 15q-27 17 -41.5 47t-22.5 114z" />
<glyph unicode="W" horiz-adv-x="1184" d="M30 613q6 64 23 118.5t34.5 113t66.5 173t69 160t32.5 56t45.5 0.5t45 -36t0 -51t-68 -147q-56 -123 -96 -267q-16 -58 -17 -82q0 -18 9 -18.5t27 17.5q59 62 130 153.5t158 201.5t111 150.5t65 96.5t70 56h2q30 -2 50 -18q13 -10 13 -46q0 -19 -4 -44q-10 -74 -46 -296 q-27 -168 -27 -230q1 -20 3 -29q2 -8 9 -8q27 0 117 112q114 142 205.5 279.5t112.5 167t40 55t36 40t33 -4.5t20 -39v-5q-1 -22 -25 -64q-28 -48 -62 -113t-85 -152.5t-140.5 -196.5t-136.5 -160q-47 -52 -116 -82q-32 -14 -55 -14q-26 0 -40 18q-26 34 -37 74t-13 90v5 q0 53 32 206q14 65 14 93q0 20 -8 20q-9 0 -23 -22q-50 -70 -113 -143t-81.5 -88.5t-44 -54.5t-44 -57t-96.5 -97q-77 -80 -105 -80h-2q-26 0 -42 18t-33 63q-14 34 -14 79q0 14 1 29z" />
<glyph unicode="X" horiz-adv-x="853" d="M-25 396q6 24 22 52t19.5 44t18 28t26.5 42t56 76t80 100t116 150t86 118t-18 58t-66 84t-70 64t-52 36t-21 34.5t18 24t37 13.5q4 1 10 1q22 0 60 -13q48 -16 94 -58t74 -80t44 -32t27 15.5t18 26t33 36.5t44 46t70 62q45 31 77 31q5 0 11 -1q36 -6 49.5 -11t25.5 -18 q8 -8 8 -22q0 -9 -3 -21q-8 -30 -38 -44t-45.5 -17.5t-28 -16t-56.5 -58.5t-78 -100q-13 -20 -13 -51q0 -50 35 -125q56 -122 66 -156t20 -44.5t14 -26t2 -35.5t-22 -20t-46 20t-58 76t-52 80t-34 56t-18.5 44t-18 16t-39.5 -14t-192 -208t-180 -216t-48 -64 q-24 -27 -40 -27q-7 0 -12 5q-13 12 -13 28q0 6 1 12z" />
<glyph unicode="Y" horiz-adv-x="716" d="M62 1399q7 10 23 10q10 0 24 -4q36 -10 86 -48t124 -184t92 -174t30 -60t22 -40q1 -1 2 -1q13 0 63 74q55 82 105.5 148.5t82.5 110t72 77.5q37 31 59 31h5q22 -4 34 -28q5 -12 5 -26q0 -15 -6 -32q-12 -34 -22 -46t-93.5 -102t-144 -182.5t-102.5 -182t-76 -141.5 t-98 -200t-78 -178t-24 -42q-2 -3 -5 -3q-10 0 -27 35t-17 64q0 8 1 16q6 36 18 68t38 94t88 176t64 136v3q0 22 -24 57q-26 38 -58 94t-104 162t-110 156t-50 82q-11 28 -11 44q0 17 12 36z" />
<glyph unicode="Z" horiz-adv-x="718" d="M60 532q-6 2 -6 8q0 8 10 22q18 25 200.5 186.5t239.5 234.5q58 73 90 131q9 15 8 29q0 37 -66 56q-90 27 -124 36t-98 13q-15 1 -28 0q-42 0 -67 -8q-32 -11 -47.5 -10.5t-29.5 13.5t-28.5 13t-12.5 25t11.5 38.5t27.5 18.5t47.5 12t72.5 11q29 3 57 2h27 q40 -2 143 -29.5t133 -41t66.5 -35.5t45.5 -39q11 -21 11 -39q1 -21 -17 -87q-20 -73 -120 -182q-100 -110 -208 -197q-63 -51 -63 -78q1 -19 33 -26q78 -17 179.5 -40t200 -71t101.5 -62q1 -3 1 -5q0 -10 -10 -17q-12 -10 -45 -12q-12 -1 -25 0q-24 0 -48 2q-38 4 -68 18 t-119 37t-141 30t-106 17q-21 4 -41 4q-33 0 -65 -10q-35 -11 -58 -11q-12 0 -22 3q-28 8 -28 21t-14 19z" />
<glyph unicode="[" horiz-adv-x="569" d="M5.5 341.5q3.5 29.5 7.5 63.5t23.5 122.5t31.5 116.5t18 58t32 106t56 164.5t58 142.5t36 86t29 107.5t46.5 141t45.5 85.5t50 26t80 22q51 17 149 5t128 -22t56 -26t6 -36t-36 -30t-28 -6t-44 0t-60 0t-64 0t-62 0t-58 -14t-54 -72t-44 -104t-38 -112t-40 -114t-66 -164 t-72 -202t-38 -118t-17 -82.5t10 -64t41 -25.5t38.5 -16.5t30 -12t21.5 -37.5t0.5 -37.5t-24 -16t-48.5 -12.5t-60 2t-60 14t-58 18t-22.5 43.5z" />
<glyph unicode="\" horiz-adv-x="569" />
<glyph unicode="]" horiz-adv-x="539" d="M-25 305q-4 16 26 44t56 40t54 4t50 -10t30 2t20.5 8.5t44.5 72.5t59.5 154t81.5 239.5t111.5 312t48 190t-19.5 31.5t-68 18t-114 18t-62 6t-19.5 12.5t-18 22t-4.5 49.5t24 48t56 10t174 -52t164 -66t24 -46t-26 -114t-50 -142t-80 -218t-100 -270t-68 -196 t-37.5 -115.5t-26 -46t-40.5 -32.5t-128 -14t-117 2t-28 12t-17 26z" />
<glyph unicode="^" horiz-adv-x="566" d="M56 1164q-2 16 10 20t44 44t44 64t104 154t116 142t54 4t46 -30t42 -102t42 -112t10 -52t-24 -28t-46 12t-54 68t-40 66t-54 -16t-98 -122t-76 -106t-42 -32t-38 -14t-26 12t-14 28z" />
<glyph unicode="_" />
<glyph unicode="`" horiz-adv-x="317" d="M32 1453q0 35 7.5 43.5t17.5 15.5q11 8 37 0t48 -22t106 -98t64 -94t-46 -6t-51 11t-104 61t-79 89z" />
<glyph unicode="a" horiz-adv-x="593" d="M-15 568v9q1 19 7 37q8 24 63.5 94.5t107 115.5t109.5 76.5t81 38.5q14 4 29 4q10 0 22 -2q28 -4 44 -17t31 -51t-13.5 -51t-51.5 9t-48 9t-49.5 -26.5t-60.5 -42.5t-74 -74t-42 -57.5t19.5 3.5t72 48.5t122.5 66.5q60 28 84 28q4 0 8 -2q20 -8 34 -27.5t16 -34t-4.5 -23 t-15 -38.5t1.5 -58t25.5 -38.5t42.5 -6.5q26 6 66 42q19 17 19 14q0 -4 -22 -32q-43 -54 -68 -68q-24 -14 -38 -14h-1q-14 0 -36.5 9t-42.5 27t-31.5 44t-15.5 38.5t-18.5 27.5t-35.5 6.5t-73.5 -46.5t-98 -62.5t-81.5 -34t-46.5 -6.5t-23 22.5t-14.5 42.5z" />
<glyph unicode="b" horiz-adv-x="468" d="M50 743q2 55 48 175t79 192t91 208t68 156t32 44q7 5 20 5q6 0 14 -1q24 -4 48 -24q11 -9 11 -22q0 -16 -17 -38q-30 -40 -68 -106q-38 -68 -90 -184q-45 -101 -44 -139q0 -6 1 -10q7 -33 33 -55q24 -21 78 -22h7q59 2 221 10q66 3 82 3q5 0 5 1q0 -2 -63 -8 q-138 -12 -206 -22q-52 -8 -53 -44q0 -11 5 -25q20 -59 26 -89q3 -16 3 -33q0 -15 -2 -31q-5 -34 -31 -72.5t-56 -65.5q-30 -28 -60 -36q-14 -4 -30 -5q-18 -1 -38 5q-38 10 -65 38t-39 84q-10 46 -10 92v19zM150 700q2 -28 17 -57q14 -28 40 -29q1 0 2 1q27 1 46 23t27 52 q3 10 2 21q0 22 -10 46q-14 37 -42 72q-14 19 -28 19q-12 0 -24 -17q-24 -34 -28 -68q-3 -24 -3 -44q0 -10 1 -19z" />
<glyph unicode="c" horiz-adv-x="421" d="M32 758q18 42 56 82.5t130 78.5q65 25 102 25q19 0 30 -6q35 -19 35 -56l-1 -1q0 -38 -69 -41t-119 -36.5t-65 -97.5q-4 -18 -5 -33q0 -41 30 -65q37 -31 75 -31q3 1 6 1q41 2 72.5 12t73.5 33q43 23 95 67q23 19 25 19q3 0 -28 -31q-55 -55 -100 -92.5t-80 -55 t-69 -24.5q-24 -5 -54 -5q-14 0 -28 1q-48 4 -90 48t-42 104q1 61 20 104z" />
<glyph unicode="d" horiz-adv-x="487" d="M30 643q0 72 44 141q45 72 162 126q89 41 89 43l-9 -3q-38 -16 -282 -40q-99 -10 -114 -10h-3q-1 2 139 21q266 36 293 63t38.5 88.5t12.5 114.5v12q0 47 -7 95q-7 54 -47 108q-36 49 -36 68v3q4 17 15 33t30 16h3q21 -2 39 -18.5t39 -47.5q20 -30 36 -124q9 -56 9 -109 q-1 -37 -5 -71q-10 -86 -16.5 -108.5t19.5 -48.5q25 -25 25 -46v-2q-2 -22 -21 -36t-37 -9h-3q-17 0 -39 -55q-24 -60 -57.5 -117.5t-61.5 -96.5t-76.5 -81.5t-75.5 -48.5q-13 -3 -24 -3q-12 0 -23 4q-20 6 -37 33q-19 30 -19 106zM132 642q2 -6 7 -6q13 0 53 40 q54 54 70 90q17 37 18 50q0 8 -8 8q-5 0 -14 -4q-21 -9 -62 -49q-41 -41 -56 -75q-10 -24 -11 -40q1 -7 3 -14z" />
<glyph unicode="e" horiz-adv-x="413" d="M-6 660q0 42 20 90q20 50 46.5 83t71 66.5t101.5 45.5q10 1 19 0q50 -1 62 -23q14 -26 14 -64v-6q-1 -42 -40 -71.5t-103 -58.5q-18 -7 -32.5 -7.5t-24 1t-15 3t-6.5 -1.5q-18 -29 -18.5 -58t19 -53.5t43.5 -28.5t50 1.5t96 34.5t97.5 54.5t52.5 49.5q15 14 15 12t-8 -12 q-18 -24 -44.5 -58t-66 -67.5t-64.5 -51.5t-67 -32q-30 -11 -59 -11q-11 -1 -22 1q-40 6 -60 19t-37 31t-28 42q-12 26 -12 70zM155 791q3 -3 8 -3q9 0 26 10q25 14 41 28q9 8 9 17q0 6 -5 12q-2 2 -7 2q-9 0 -27 -9q-28 -14 -40 -32q-8 -11 -8 -17q0 -5 3 -8z" />
<glyph unicode="f" horiz-adv-x="422" d="M-134 270q7 11 14.5 -5.5t22 -21.5t29 10.5t119.5 308.5q66 182 66 240q0 27 -15 27q-4 0 -9 -2q-20 -8 -33 -8q-25 0 -25 32q0 4 1 9q5 60 57 62t65.5 12.5t56 117.5t69.5 160.5t61.5 105.5t78.5 82q33 20 58 20q10 0 20 -4q30 -12 51.5 -33t33 -45t-5.5 -53t-33 -15 t-43.5 26t-50 -5t-51.5 -64t-68 -131t-50 -122q-2 -7 -2 -12q0 -25 39 -25h3q25 1 54 1t62 -1h28q71 0 225 3l104 3l-68 -1q-152 -4 -240 -23t-119 -27t-65 -19t-44 -22t-24 -31t-94 -258t-99 -292t-45 -78q-23 -20 -55 -20h-9q-37 3 -56 44q-15 32 -15 46q0 5 1 8z" />
<glyph unicode="g" horiz-adv-x="514" d="M-121 123q0 61 141 193q75 71 77 71t-59 -61q-128 -126 -130 -173t21.5 -54t47 2t64 42.5t68 62.5t66.5 89t70.5 128t43 94.5t41.5 110.5q13 37 13 49q0 7 -4 7q-5 0 -18 -13q-39 -41 -102.5 -89.5t-104.5 -61.5t-62.5 -7t-37.5 25q-11 11 -11 36q0 15 5 36 q10 55 52 130.5t98 116t100 57.5q42 16 66 16h3q25 -1 56.5 -14.5t50.5 9.5q61 -4 61 -27q0 -4 -3 -10q-15 -32 -31 -112t-30 -135.5t-40 -117t-40.5 -95t-36 -75.5t-71 -119t-114 -132.5t-105.5 -66.5q-15 -4 -32 -4q-27 0 -58 11q-55 19 -55 81zM130 665q-9 -16 -9 -23 q0 -5 5 -5q8 0 31 14q55 33 99 72t65 64q12 15 12 23q0 6 -6 9q-8 8 -19 8q-13 0 -32 -11q-34 -21 -76 -62.5t-70 -88.5z" />
<glyph unicode="h" horiz-adv-x="588" d="M4 572.5q0 29.5 60 228.5t137 389t90 231t49 91q17 4 32 4q31 0 53 -17q14 -10 14 -28q0 -24 -27 -60q-46 -63 -129 -265.5t-108 -287.5q-14 -46 -14 -60q0 -6 3 -7q2 0 7 5q21 23 41.5 41.5t45.5 38t45.5 28.5t45.5 13.5t45.5 -7t32 -29.5t13.5 -65q1 -11 1 -23 q0 -37 -6 -75q-4 -27 -4 -48q0 -18 3 -30q8 -26 26 -46q12 -13 35 -13q12 -1 28 3q45 10 70 38q16 17 16 10q-1 -4 -5 -14q-14 -30 -40 -53.5t-64 -41t-62 -18t-49 20t-34 58.5q-6 25 -6 68q0 24 2 52q1 19 1 34q0 50 -12 62q-4 4 -11 4q-23 0 -75 -39q-68 -51 -103 -115 t-52 -108q-15 -38 -35 -39q-3 0 -7 1q-25 7 -39 23t-14 45.5z" />
<glyph unicode="i" horiz-adv-x="274" d="M22 550q7 42 29.5 128.5t42.5 150.5q10 32 10 49q0 16 -10 16q-20 2 15 26t56 29q23 5 51 -3q17 -5 17 -25q1 -13 -7 -33q-18 -50 -40.5 -130t-42 -130t-43.5 -86.5t-46 -39.5q-9 -1 -15 -1q-9 1 -15 3q-5 2 -5 16q0 11 3 30zM220 1205q6 27 17 40t39 19q7 2 13 2 q19 0 36 -14q22 -18 26.5 -78.5t41.5 -118t87 -91.5t92 -48q20 -7 20 -9q0 -1 -3 0q-5 1 -20 3q-44 8 -87.5 35t-93.5 81.5t-73 80t-32.5 28.5t-16.5 5q-6 2 -30 20q-18 14 -18 34q1 5 2 11z" />
<glyph unicode="j" horiz-adv-x="366" d="M-187 141q22 -12 42 -12q22 0 42 13q40 25 75 71.5t71 125t75.5 208.5t47.5 181t-21 39.5t-68.5 -31t-45.5 -16t49.5 34t106.5 102t73 77.5q22 7 42.5 -2.5t25.5 -35.5v-12q0 -26 -14 -76q-18 -63 -45.5 -148t-94.5 -245t-104 -216t-83 -92t-92 -37h-4q-44 0 -83 23 q-40 23 -40 47q0 26 45 1zM306 1114q6 20 22 42t55 35q18 13 40 13q16 0 33 -6q43 -16 57.5 -43.5t21.5 -80t17 -91t51 -73.5q19 -15 19 -17q0 -1 -27 17q-49 35 -74 97t-51 76t-48 14t-57 -31.5t-50 -1.5q-11 21 -11 37q0 7 2 13z" />
<glyph unicode="k" horiz-adv-x="571" d="M60 524q6 24 37 89.5t71 255.5q42 189 52 267q3 19 2 31q0 14 -4 13q-6 0 -20 -26q-32 -60 -104 -162q-40 -56 -42 -56q-1 0 25 40q57 88 81 131.5t58.5 134.5t55.5 112q12 12 30 12q14 0 28 -6q22 -9 21 -55q-1 -29 -9 -74q-24 -114 -51 -228q-11 -47 -12 -74 q0 -37 22 -37h3q40 4 74.5 32t76.5 59.5t79.5 55t45.5 -12.5q3 -14 3 -27q0 -21 -8 -35q-13 -24 -106 -86q-89 -59 -89 -76q0 -2 10 -32q5 -16 42 -68q36 -54 96 -110q54 -51 54 -67q0 -3 -1 -3q-6 -14 -21 -18t-38 -8h-4q-23 0 -65 36q-46 40 -88.5 98t-72.5 92 q-28 36 -40 44q-1 1 -2 0q-12 0 -42 -94q-32 -102 -55 -152q-21 -44 -46 -44h-7q-29 8 -37 16q-5 5 -5 15q0 7 2 17z" />
<glyph unicode="l" horiz-adv-x="319" d="M22 614q12 72 69 236.5t95 242t78 139.5q34 53 58 53q4 0 8 -2q29 -13 29 -32q-1 -22 -87 -194q-88 -175 -128 -327q-30 -116 -30 -155q0 -12 3 -16q12 -19 43 -11t158 86q127 80 156 104q8 7 9 6q1 0 -46 -44q-66 -62 -99.5 -92t-66.5 -65.5t-81 -61.5q-46 -27 -82 -29 h-8q-28 0 -44 17q-16 19 -32 46q-8 15 -8 43q0 23 6 56z" />
<glyph unicode="m" horiz-adv-x="903" d="M-140 698q78 64 154.5 117.5t114.5 105.5q37 50 60 50h2q24 -2 31 -20t12 -33.5t10 -45.5q0 -3 1 -6q1 -32 -41 -108q-21 -40 -22 -47q0 -2 1 -2q4 -1 27 27q52 64 89 80q18 8 35 8q18 0 33 -8q31 -16 39 -38t10 -50t8 -32h1q9 0 65 60q60 64 106 84q29 13 51 13 q13 0 24 -4q30 -12 52.5 -47t58.5 -102t74.5 -98.5t68.5 -37.5q4 -1 9 -1q31 -1 95 33q46 24 48 24q1 0 -15 -9q-41 -24 -82.5 -41.5t-58.5 -27t-46.5 -16.5t-55.5 6t-50 33.5t-60 68t-51.5 70.5t-38.5 19t-48 -25.5t-68.5 -61.5t-68 -84t-29.5 -56q-5 -14 -26 -36 q-17 -18 -32 -18q-4 0 -8 2q-19 6 -27.5 20t-1.5 51t11.5 71t7 74t-23.5 42q-1 0 -2 1q-27 1 -85 -57q-60 -60 -76 -93t-25.5 -47t-20 -22t-42 2t-35.5 26q-1 3 -1 7q0 18 16 58q19 49 50 151t43 129q1 2 1 3q0 2 -3 2q-19 0 -165 -103q-118 -83 -123 -83q-4 0 23 22z" />
<glyph unicode="n" horiz-adv-x="582" d="M-28 724q-17 -16 -19 -15q-3 -1 55 59q86 90 95.5 105.5t18.5 28t30 22.5q9 4 19 4q15 0 35 -8q32 -14 13.5 -52t-60.5 -126q-23 -49 -23 -58q0 -2 1 -2q3 0 13 12q34 40 81.5 81t68.5 53t45.5 18t55.5 -3t53 -51q22 -40 24 -136q1 -94 45 -94h1q46 2 89 34t64 64 q18 28 18 20q0 -13 -23 -47q-20 -29 -85 -90t-113 -62h-2q-46 0 -66 38q-22 39 -28 125q-7 84 -23 86q-1 0 -1 1q-17 -1 -69 -33q-54 -34 -99 -87.5t-73.5 -91t-51.5 -45.5q-7 -2 -12 -2q-15 0 -25 14q-14 20 -10 49t17 89t37 126q10 27 10 40q0 10 -7 10q-5 0 -14 -6 q-35 -24 -85 -70z" />
<glyph unicode="o" horiz-adv-x="360" d="M14 600q2 55 12.5 88.5t32.5 70t13 34t-4.5 2.5t34.5 43t48 55q18 18 46 23q11 2 20 2q15 0 26 -5q18 -9 30 -29t58 -19h5h44q37 -1 81 -1q31 -1 30 -1q0 -1 -62 -3q-106 -3 -120.5 -8.5t-12 -35.5t4.5 -64q1 -20 0 -42v-32q-1 -41 -6 -61t-15 -42t-29.5 -46.5t-48 -45.5 t-52.5 -31q-13 -6 -26 -6q-12 0 -26 4q-28 10 -45.5 30.5t-27.5 42.5q-9 19 -10 64v13zM106 632q-2 -17 -3 -30q-1 -24 7 -36q12 -19 24 -22h4q12 0 32 16q24 20 38 85q6 26 5 45q0 30 -13 46q-9 11 -19 11q-16 0 -36 -26q-33 -42 -39 -89z" />
<glyph unicode="p" horiz-adv-x="473" d="M-172 69q2 20 16 50.5t38 101.5t101.5 273.5t92 240t37.5 110.5q13 40 13 56q0 11 -6 11h-2q-19 -7 -81 -40q-22 -13 -25 -13q-5 0 52 38q89 60 109 67q7 3 14 3q11 0 19 -8q14 -12 16 -29q1 -3 1 -7q0 -21 -11 -70q-13 -59 0 -48t37 22t61 24q31 11 59 11h9 q32 -2 48.5 -15.5t21 -22t12 -24.5t7.5 -19.5t2 -14.5q1 -4 1 -10q0 -11 -3 -28q-4 -27 -21.5 -64.5t-52.5 -70t-60 -46.5t-53.5 -25t-59 -15.5t-48 8.5t-18 29.5t10.5 37.5t22.5 37.5t38.5 39t56.5 35.5t46.5 16.5t-22.5 -23.5t-69 -53t-19 -38t38 -1.5t79.5 62.5 q39 38 39 69q0 11 -5 20q-12 25 -39 25q-14 0 -31 -7q-53 -19 -94 -55t-86 -145.5t-64 -162t-50.5 -144.5t-73.5 -179q-37 -77 -63 -77q-3 0 -5 1q-27 11 -33 29q-4 13 -4 26q0 6 1 12z" />
<glyph unicode="q" horiz-adv-x="487" d="M18 593q7 28 52.5 88t107 103.5t102 73t65 40t44.5 25.5q15 11 36 11q7 0 15 -1q30 -5 41.5 -8.5t22.5 -12.5q13 -13 13 -29q0 -14 -27 -28q-30 -15 -27 -38v-7q0 -22 -17 -64q-19 -49 -47 -91.5t-38 -64.5t-82 -193t-83 -213.5t-5 -52.5t26 -9.5t62.5 24.5t70.5 70 t49 84q5 9 7 9q3 0 -28 -78q-42 -106 -104 -154q-56 -43 -92 -43q-4 0 -8 1q-38 6 -60 29t-22 53q0 28 16 85q16 61 76 198q61 136 61 143q0 6 -37 -18q-35 -24 -69.5 -39t-52 -11t-38.5 18t-28 43q-5 16 -5 31q0 13 3 26zM116 599q-5 -8 -5 -15q0 -8 7 -13t15 -5t18 4 q20 10 47 28.5t88 87.5q60 65 60 77q0 10 -14 12h-1q-12 0 -85 -53q-77 -56 -98 -80.5t-32 -42.5z" />
<glyph unicode="r" horiz-adv-x="441" d="M-16 490q6 8 30 91.5t59 222.5q35 136 68 136h1q34 -3 51 -30q8 -12 8 -27q1 -17 -11 -39q-20 -40 -4 -37.5t43 20t51.5 28t39.5 13.5t58 -10q42 -12 80 -36q21 -13 49 -14q23 0 51 10q23 7 28 7h1q0 -3 -42 -21q-72 -31 -146 -30h-9h-14q-70 0 -110 -19 q-44 -21 -73.5 -46.5t-55 -84t-39 -98.5t-24.5 -66q-10 -24 -42 -26q-2 0 -4 -1q-30 0 -40 24q-7 16 -6 25q0 5 2 8z" />
<glyph unicode="s" horiz-adv-x="318" d="M-47 466q-1 38 105 134q57 52 60 52q4 0 -42 -46q-77 -78 -77 -107q-1 -6 3 -11q20 -23 49 -12t45.5 29.5t24.5 45t7 49.5q-2 22 -16 100q-7 39 -7 68q-1 28 7 48q14 39 43 67.5t69 48.5t80 26q9 1 16 1q26 0 32 -16q3 -7 3 -14q-1 -14 -11 -27q-16 -20 -44.5 -22.5 t-61.5 -41t-38 -90.5q-2 -21 -2 -37q0 -24 4 -36q8 -20 17 -78q3 -17 3 -33q0 -36 -15 -66q-21 -42 -45 -61t-59.5 -28t-60.5 -9q-26 0 -54 12q-36 15 -35 54z" />
<glyph unicode="t" horiz-adv-x="345" d="M54 832q36 18 64 19t50 78t26 102.5t13 69.5t21 58q10 12 32 12h6q26 -2 38 -16t20 -34t-3 -42t-21 -57.5t-26 -99.5q-8 -30 -8 -48q0 -20 10 -24q18 -8 62 -16q35 -6 104 -6h36h19q27 0 27 -2q0 -3 -56 -12q-107 -16 -158.5 -29t-68 -18.5t-56 -111t-52 -140.5 t-26.5 -47t-36 -18q-9 -3 -18 -3q-12 0 -22 5q-9 4 -9 20t10 45q18 57 50 135t35 97t-26 14t-51 -5t-23 26q0 30 37 48z" />
<glyph unicode="u" horiz-adv-x="507" d="M-29 874q-9 6 -9 8q0 4 43 -12q28 -11 49 -11q24 0 37 15q25 28 45 33q9 2 16 2q10 0 22 -4q18 -7 24 -24.5t-2 -41.5q-6 -24 -50 -126q-22 -53 -23 -75q0 -16 12 -16q3 0 8 1q41 12 147 118t126 116q21 11 36.5 8t21.5 -15q2 -3 2 -9q0 -21 -14 -77q-18 -76 -24 -129 q-2 -14 -2 -27q0 -32 12 -48q16 -22 55.5 -15.5t85.5 53.5q26 27 26 25q1 -3 -15 -21q-36 -42 -66.5 -76t-53.5 -43q-15 -6 -33 -6q-11 0 -21 2q-30 5 -49 24t-30 45q-6 15 -6 33q0 15 4 33q9 38 11.5 66t-22.5 -3t-61.5 -67.5t-77.5 -64.5t-64.5 -36t-47 -11.5t-43.5 8.5 t-25 38q-1 6 -1 14q0 24 11 62q15 50 51 137q14 34 13 55q0 34 -34 38q-56 6 -84 24z" />
<glyph unicode="v" horiz-adv-x="476" d="M20 818q14 24 42 28t48 -20t38 -75.5t23 -78t20 -16.5t93 116t87 115.5t20 17.5q10 9 25 9h2q16 0 28 -12l30 -30t50 -24q9 -2 21 -1q32 1 87 11q32 6 37 6q1 0 1 -1t-39 -11q-77 -20 -127.5 -32t-77 -39t-60.5 -69t-78 -108t-58 -90t-36 -40q-13 -9 -26 -9q-10 0 -22 5 q-26 12 -38 36t-14 56t-20 84t-44 100q-17 31 -16 53q-1 11 4 19z" />
<glyph unicode="w" horiz-adv-x="686" d="M84 864v6q0 44 30 48q8 1 14 2q22 0 39 -11q20 -13 20 -110l-1 -19q0 -63 26 -63q16 0 44 27q72 70 118 89q15 6 27 6q25 1 39 -25q13 -24 14 -73q0 -29 -5 -67.5t-5 -54.5q0 -13 3 -13t11 17q22 51 34 88t39 73t65 60q14 9 29 10q25 0 51 -26q28 -28 95 -29q33 0 73 7 q64 10 71 10h1q0 -2 -40 -10q-92 -20 -165 -22.5t-98.5 -44.5t-38.5 -83t-57.5 -114.5t-67.5 -93.5q-16 -14 -28 -13q-5 0 -9 2q-14 9 -34 47q-17 31 -18 97q0 15 1 32q1 13 1 23q0 55 -19 55q-4 -1 -8 -3q-31 -16 -107 -101q-75 -85 -98 -85q-24 2 -36 24q-6 11 -6 27 q0 18 7 42q11 39 11 78v15q-2 46 -6.5 69.5t-9 40.5t-6.5 66z" />
<glyph unicode="x" horiz-adv-x="486" d="M-47 708q-5 -5 -5 -3q0 3 18 27q27 38 52.5 71t49.5 66t47 55q20 19 35 19q2 -1 5 -1q17 -4 34.5 -36.5t32.5 -63t26 -52.5t27 -13.5t46.5 33t74.5 61t64.5 42t41.5 1.5t25 -22q2 -9 2 -19q0 -9 -2 -21q-4 -22 -23 -30.5t-66 -39.5q-48 -32 -92 -66q-38 -30 -38 -52 q0 -4 1 -8q7 -26 39 -82q29 -51 46 -52q2 0 4 1q17 7 52 91q17 42 18.5 42t-14.5 -44q-32 -88 -52 -116t-49 -28h-1q-29 0 -54 34q-26 34 -50 67.5t-48.5 18t-58.5 -46.5t-63.5 -48.5t-48.5 -23.5q-6 -2 -11 -2q-10 0 -13 8q-5 12 -5 28.5t15 32t66.5 62t74 68t20.5 36 t-32 72.5q-28 60 -52 62h-2q-24 0 -72 -56q-50 -58 -65 -72z" />
<glyph unicode="y" horiz-adv-x="509" d="M-126 46q-7 13 -7 30q0 33 28 82q23 38 25 38q3 0 -10 -31q-10 -21 -10 -36q0 -32 42 -37q16 -2 30 -2q43 0 75 17q43 23 100 70t87.5 81.5t67 101.5t56 152t22 126t1 47.5t-18.5 -5.5t-35.5 -32t-40 -38.5t-66.5 -52t-75 -34.5t-58.5 11t-42 37t-13.5 57.5t5 47t27 95.5 t48.5 92.5t42 10.5t24.5 -17.5t-2 -40.5t-28 -81q-14 -47 -14 -77v-11q4 -31 28.5 -21.5t46.5 26t40.5 37t68.5 89t68 88.5q14 15 32 15q6 0 13 -2q26 -7 37 -23q8 -12 8 -25v-8q-4 -17 -2 -63v-17q0 -43 -8 -113q-9 -85 -18 -142t-41 -131.5t-84 -140t-122.5 -114 t-125.5 -72t-87 -28.5q-16 -2 -31.5 -2t-30.5 2q-30 5 -52 44z" />
<glyph unicode="z" horiz-adv-x="461" d="M-34 474q4 28 16 38t33.5 20.5t81 61.5t95 85t77.5 70t58.5 55.5t-14 15.5t-89.5 -27t-74 -40.5t-28.5 -14t-20 17t-2 39.5t42.5 52t86 46t84.5 29.5t51.5 10.5h5q15 -1 41 -9q30 -10 36.5 -19.5t7 -24.5t-1.5 -37.5t-17 -50t-66.5 -73t-88 -81t-53 -54t-47.5 -41t-1 -24 t93.5 -14.5t113.5 -23q32 -6 57 -6q13 0 23 2q32 5 102 19q36 7 39 7t-24 -6q-54 -13 -97.5 -27t-69 -24.5t-48.5 -21.5q-22 -11 -63 -11h-3q-44 0 -72 9q-30 9 -80 13q-37 3 -57 3q-8 -1 -13 -1q-20 -2 -32.5 -11t-30.5 -9.5t-29 3.5t-19 15q-5 7 -5 21q0 7 2 17z" />
<glyph unicode="{" horiz-adv-x="570" d="M67 891.5q-6 33.5 28.5 61.5t69.5 44.5t52.5 20.5t35.5 16t44.5 35.5t41.5 33t20.5 29.5t25.5 49t23 43.5t12 43.5t15.5 48.5t41.5 89.5t77.5 128.5t67 84t101.5 86.5q77 62 123 12t50 -72t-20.5 -47.5t-46.5 -6.5t-44 -2.5t-51 -43.5t-76 -72.5t-68.5 -101t-73 -172.5 t-74 -149t-78 -72.5t-67.5 -54t-18.5 -25t15.5 -45.5t27.5 -52.5t0.5 -82t-14.5 -97t-24 -67.5t-26.5 -54t-17.5 -63t-9.5 -72.5t3 -49.5t23.5 -26.5t39 -22.5t32.5 -6t42 2.5t32.5 -10.5t-24 -29.5t-46 -32.5t-37.5 -10t-36 0.5t-40.5 7.5t-36.5 15t-29.5 22.5t-28 52.5 t-10.5 77.5t15.5 77t48.5 155t37.5 136.5t-47 49.5t-62.5 40t-24 26.5t-15 51.5z" />
<glyph unicode="|" horiz-adv-x="532" />
<glyph unicode="}" horiz-adv-x="619" d="M-157 262.5q-20 49.5 38 11t140 15t138 156t76.5 173t38.5 98.5t48 64t-21.5 59t-70 50t-24.5 91t0 76t14 50t46 140t72 160t42 96t6.5 54t-14 28t-66.5 -4t-64 -2t-10 36t30 58t46 41t38 8t60 -7t58 -36t30 -64t-6 -114t-28 -110t-62 -124t-62 -162t-2 -108t20.5 -47.5 t28 -18t59.5 -10.5t76 -16t42 -24t2 -34t-14 -36t-24 -22t-66 -52t-70 -70t-46.5 -115t-76.5 -177t-106 -126t-94 -56t-98 -18t-70 8t-22 19.5t-32 61z" />
<glyph unicode="~" horiz-adv-x="1196" />
<glyph unicode="&#xa1;" horiz-adv-x="446" d="M-31 68.5q9 24.5 20.5 77t96.5 230t92 204t28.5 53.5t30.5 35t33 9t41.5 -26t8.5 -51.5t-60 -106.5t-58 -106.5t-38.5 -92t-48.5 -112.5t-37 -84.5t-36.5 -65t-32 -32t-22 -3t-17 25t-1.5 46zM327.5 919.5q4.5 72.5 20.5 120.5t36 60t48 6t36 -30t-38.5 -87t-57 -74 t-30 -39.5t-15 44z" />
<glyph unicode="&#xa2;" horiz-adv-x="761" d="M64.5 837q0.5 12 16 52t32.5 66.5t72 80t101 83.5t74 40t42 12t22 16t38 60t66 86t62 52t56 2t40 -38t10 -54.5t-10 -78t12 -85.5t24 -60t-36 -34t-60 8t-70 24t-76 -14t-82 -114t-82 -176t-2 -94t62 -12t66 6t50 26t54 60t43.5 61t6 2t-11.5 -47t-32.5 -74.5t-46 -68 t-79.5 -41.5t-124 -10t-82 -8t-32 -72t-28 -120t-22 -76t-33 8.5t-24 62t-1 79.5t24 124t6 106t-28 48t-14 64t-3.5 48zM174 799q2 -22 8 -22t22 16t24 40t20 44t19.5 37.5t20.5 46.5t-12 11q-25 -17 -46.5 -40t-35.5 -41t-18 -44t-2 -48zM564 1209q8 -16 48 -28t54 -1.5 t4.5 43.5t-20 43.5t-22.5 12.5t-42 -26t-22 -44z" />
<glyph unicode="&#xa3;" />
<glyph unicode="&#xa5;" />
<glyph unicode="&#xa6;" horiz-adv-x="532" />
<glyph unicode="&#xa7;" horiz-adv-x="936" d="M14 373q4 16 21.5 12t87.5 20t124 70t68 80t16 56t-14 32t-29 39t12 40t23 29t-44 124t-50 140t-16 94t0 84t6 40t30 64t58 70t58 42t56 44t110 88t162 86t118 28t130 -6t120 -30t46 -28.5t22 -28t12 -39.5t-6 -36t-22.5 -25t-84.5 -70.5t1 6.5t44.5 84.5t-110.5 34.5 t-122 10t-57.5 -8.5t-28 -18t-24.5 -35t-35.5 -39.5t-60 -20.5t-52.5 -14.5t-30 -44t30 -202t48 -216t-8 -82t-28 -70t-68 -82t-62 -86t-42 -102t-56 -90t-72.5 -57.5t-104 -50t-89.5 -15.5t-46.5 11t-29.5 31t-11 37zM341 1143q0 -34 8 -68t9 -50.5t10 -34t35 -85.5t29 -84 t14 -30t24 -9t20 20t17 51t8 76t-16 72t-31.5 72.5t-20 60t-14.5 85.5t-22 66t-32 -24t-29.5 -37.5t-8 -30t-0.5 -50.5z" />
<glyph unicode="&#xa8;" horiz-adv-x="682" />
<glyph unicode="&#xa9;" horiz-adv-x="1159" d="M102 754q0 46 24 108t56 116t92 108t94 76t120 48t110 30t78 0t76 -10t58 -56t52 -60t62 -50t86 -114t44 -130.5t-4 -100t-28 -81.5t-46 -68t-100 -70t-138 -60t-134 -30t-122 -4t-132 38t-114 56t-72 70t-50 92t-12 92zM214 702q20 -70 106 -126t132 -68t98 -14t144 20 t150 53t92 90t34 101t-10 80t-46 96t-134 88t-99.5 55t18 40t6.5 24t-32 14t-69 -7t-138 -48t-132 -88t-62 -82t-48 -94t-10 -134zM372 832q14 32 32 52t90 54t102 40t42 8.5t50 -2.5q38 -4 54 -22t12 -50t-10 -42t-46 -2t-120 -18t-94 -48t-4 -46t30 -40t44 -22t52 -8t74 2 t56 -8t0 -16t-26 -24t-80 -28t-94 -2t-54 16t-44 26t-34 38t-30 66t-2 76z" />
<glyph unicode="&#xaa;" horiz-adv-x="758" />
<glyph unicode="&#xab;" />
<glyph unicode="&#xac;" horiz-adv-x="1196" />
<glyph unicode="&#xad;" horiz-adv-x="629" d="M19 752q-24 16 4 38t66.5 45t104 29.5t94.5 5t41.5 -0.5t24.5 5q13 5 82.5 -11t117 -16t65 -9.5t27 -7.5t5.5 -3.5t-30.5 -17t-34.5 -8t-19.5 -4t-19 -3.5t-19 -4t-59.5 -8t-96 -9t-71 -16.5t-31 -5.5t-60.5 -8.5t-94.5 -26t-57.5 2t-39.5 33.5z" />
<glyph unicode="&#xae;" horiz-adv-x="1509" />
<glyph unicode="&#xaf;" horiz-adv-x="1131" />
<glyph unicode="&#xb0;" horiz-adv-x="472" d="M37 1452q0 28 14 62t50 74t60 54t86 30t76.5 15t30 -10t12.5 -36.5t-11 -31t15 -18.5t43 -33t32 -46t4 -60t-26 -52t-91.5 -50t-107.5 3.5t-6 42.5t45.5 10.5t45.5 11.5t44 32t-2 42t-64.5 38t-66.5 15.5t-37 -15.5t-23.5 -35.5t-6.5 -48.5t20 -36t21.5 -27t25.5 -36.5 t-31.5 -23t-80.5 11t-32 30t-23 37.5t-16 50z" />
<glyph unicode="&#xb1;" horiz-adv-x="1124" />
<glyph unicode="&#xb2;" horiz-adv-x="682" />
<glyph unicode="&#xb3;" horiz-adv-x="682" />
<glyph unicode="&#xb4;" horiz-adv-x="682" />
<glyph unicode="&#xb5;" horiz-adv-x="1180" />
<glyph unicode="&#xb6;" horiz-adv-x="1100" />
<glyph unicode="&#xb7;" horiz-adv-x="682" />
<glyph unicode="&#xb8;" horiz-adv-x="682" />
<glyph unicode="&#xb9;" horiz-adv-x="682" />
<glyph unicode="&#xba;" horiz-adv-x="748" />
<glyph unicode="&#xbb;" />
<glyph unicode="&#xbc;" horiz-adv-x="1708" />
<glyph unicode="&#xbd;" horiz-adv-x="1708" />
<glyph unicode="&#xbe;" horiz-adv-x="1708" />
<glyph unicode="&#xbf;" horiz-adv-x="753" d="M107 334.5q0 65.5 58 164t82 126.5t62 68t120 112t94 86t32 6t26 -28t0 -40t-18 -34t-42 -36t-56 -46t-50 -52t-62 -68t-84 -124t-50 -124t3 -67.5t26.5 -35t54.5 0.5t101.5 45t80.5 25t16 -28t-12 -38t-58 -54t-75.5 -46t-82 -18t-86.5 12t-47 35t-22 56t-11 102.5z M503 1315q8 18 13.5 25.5t13.5 13.5q9 7 35 3t76 -34t72 -64t20 -54t-22 -28t-38 2t-32 24t-28 18t-20 2t-26 6t-36 20t-26 30t-2 36z" />
<glyph unicode="&#xc0;" horiz-adv-x="1366" />
<glyph unicode="&#xc1;" horiz-adv-x="1366" />
<glyph unicode="&#xc2;" horiz-adv-x="1366" />
<glyph unicode="&#xc3;" horiz-adv-x="1366" />
<glyph unicode="&#xc4;" horiz-adv-x="1366" />
<glyph unicode="&#xc5;" horiz-adv-x="1366" />
<glyph unicode="&#xc6;" horiz-adv-x="2048" />
<glyph unicode="&#xc7;" horiz-adv-x="1479" />
<glyph unicode="&#xc8;" horiz-adv-x="1366" />
<glyph unicode="&#xc9;" horiz-adv-x="1366" />
<glyph unicode="&#xca;" horiz-adv-x="1366" />
<glyph unicode="&#xcb;" horiz-adv-x="1366" />
<glyph unicode="&#xcc;" horiz-adv-x="569" />
<glyph unicode="&#xcd;" horiz-adv-x="569" />
<glyph unicode="&#xce;" horiz-adv-x="569" />
<glyph unicode="&#xcf;" horiz-adv-x="569" />
<glyph unicode="&#xd0;" horiz-adv-x="1479" />
<glyph unicode="&#xd1;" horiz-adv-x="1479" />
<glyph unicode="&#xd2;" horiz-adv-x="1593" />
<glyph unicode="&#xd3;" horiz-adv-x="1593" />
<glyph unicode="&#xd4;" horiz-adv-x="1593" />
<glyph unicode="&#xd5;" horiz-adv-x="1593" />
<glyph unicode="&#xd6;" horiz-adv-x="1593" />
<glyph unicode="&#xd7;" horiz-adv-x="1196" />
<glyph unicode="&#xd8;" horiz-adv-x="1593" />
<glyph unicode="&#xd9;" horiz-adv-x="1479" />
<glyph unicode="&#xda;" horiz-adv-x="1479" />
<glyph unicode="&#xdb;" horiz-adv-x="1479" />
<glyph unicode="&#xdc;" horiz-adv-x="1479" />
<glyph unicode="&#xdd;" horiz-adv-x="1366" />
<glyph unicode="&#xde;" horiz-adv-x="1366" />
<glyph unicode="&#xdf;" horiz-adv-x="1251" />
<glyph unicode="&#xe0;" />
<glyph unicode="&#xe1;" />
<glyph unicode="&#xe2;" />
<glyph unicode="&#xe3;" />
<glyph unicode="&#xe4;" />
<glyph unicode="&#xe5;" />
<glyph unicode="&#xe6;" horiz-adv-x="1821" />
<glyph unicode="&#xe7;" horiz-adv-x="1024" />
<glyph unicode="&#xe8;" />
<glyph unicode="&#xe9;" />
<glyph unicode="&#xea;" />
<glyph unicode="&#xeb;" />
<glyph unicode="&#xec;" horiz-adv-x="569" />
<glyph unicode="&#xed;" horiz-adv-x="569" />
<glyph unicode="&#xee;" horiz-adv-x="569" />
<glyph unicode="&#xef;" horiz-adv-x="569" />
<glyph unicode="&#xf0;" />
<glyph unicode="&#xf1;" horiz-adv-x="682" d="M17 542.5q-7 17.5 2.5 53.5t29.5 81t40 71t18.5 53.5t-83.5 -7t23.5 14.5t119.5 63t54 -1.5t-14.5 -90t6 -11.5t109 74t78 7t55.5 -24t42 -105t32 -113t56 -34t70.5 -6t66.5 11.5t61.5 36t-15.5 -20t-90 -68t-81 -27.5t-64 -2t-66 32t-56 113t-34 89t-34 2t-56 -35 t-104 -99t-88 -82t-30 -10t-26.5 10.5t-21.5 24zM149 1102q-8 16 8 44t42 46t56 30t46.5 11t34 -10t39.5 -31t62 -26t78 0t58 -2t14 -20t-32 -32t-40 -25.5t-46 -17.5t-50 -10.5t-50 11.5t-52 36t-42 30t-70 -22t-56 -12z" />
<glyph unicode="&#xf2;" />
<glyph unicode="&#xf3;" horiz-adv-x="465" d="M5 506q-4 26 6 76t28 90t32 56t36 54t54 68t40 52t52 38t70 10t34 -24t2 -40t-6 -42t8 -44t4 -30t2 -20t-4 -60t-20 -68t-14 -48t-20 -42t-28 -34t-28 -32t-52 -34t-60 -26t-50 0t-42 20t-28 34t-16 46zM129 566q-12 -46 2 -44t40 26t46 50t31 39t14 32t1 53t-8 36 t-18 -14t-26 -26t-30 -44t-28 -48t-24 -60zM356 1163q2 22 12 38t34 42t40 34t30 20t80 43t114 31t64 -10t24 -38t4 -32t-34 0t-66 -10t-74 -49t-80 -67t-54 -46t-30 -22t-32 4t-24 26t-8 36z" />
<glyph unicode="&#xf4;" />
<glyph unicode="&#xf5;" />
<glyph unicode="&#xf6;" />
<glyph unicode="&#xf7;" horiz-adv-x="1124" />
<glyph unicode="&#xf8;" horiz-adv-x="1251" />
<glyph unicode="&#xf9;" />
<glyph unicode="&#xfa;" />
<glyph unicode="&#xfb;" />
<glyph unicode="&#xfc;" />
<glyph unicode="&#xfd;" horiz-adv-x="1024" />
<glyph unicode="&#xfe;" />
<glyph unicode="&#xff;" horiz-adv-x="1024" />
<glyph unicode="&#x152;" horiz-adv-x="2048" />
<glyph unicode="&#x153;" horiz-adv-x="1933" />
<glyph unicode="&#x178;" horiz-adv-x="1366" />
<glyph unicode="&#x2c6;" horiz-adv-x="612" />
<glyph unicode="&#x2dc;" horiz-adv-x="682" />
<glyph unicode="&#x2000;" horiz-adv-x="915" />
<glyph unicode="&#x2001;" horiz-adv-x="1830" />
<glyph unicode="&#x2002;" horiz-adv-x="915" />
<glyph unicode="&#x2003;" horiz-adv-x="1830" />
<glyph unicode="&#x2004;" horiz-adv-x="610" />
<glyph unicode="&#x2005;" horiz-adv-x="457" />
<glyph unicode="&#x2006;" horiz-adv-x="305" />
<glyph unicode="&#x2007;" horiz-adv-x="305" />
<glyph unicode="&#x2008;" horiz-adv-x="228" />
<glyph unicode="&#x2009;" horiz-adv-x="366" />
<glyph unicode="&#x200a;" horiz-adv-x="101" />
<glyph unicode="&#x2010;" horiz-adv-x="629" d="M19 752q-24 16 4 38t66.5 45t104 29.5t94.5 5t41.5 -0.5t24.5 5q13 5 82.5 -11t117 -16t65 -9.5t27 -7.5t5.5 -3.5t-30.5 -17t-34.5 -8t-19.5 -4t-19 -3.5t-19 -4t-59.5 -8t-96 -9t-71 -16.5t-31 -5.5t-60.5 -8.5t-94.5 -26t-57.5 2t-39.5 33.5z" />
<glyph unicode="&#x2011;" horiz-adv-x="629" d="M19 752q-24 16 4 38t66.5 45t104 29.5t94.5 5t41.5 -0.5t24.5 5q13 5 82.5 -11t117 -16t65 -9.5t27 -7.5t5.5 -3.5t-30.5 -17t-34.5 -8t-19.5 -4t-19 -3.5t-19 -4t-59.5 -8t-96 -9t-71 -16.5t-31 -5.5t-60.5 -8.5t-94.5 -26t-57.5 2t-39.5 33.5z" />
<glyph unicode="&#x2012;" horiz-adv-x="629" d="M19 752q-24 16 4 38t66.5 45t104 29.5t94.5 5t41.5 -0.5t24.5 5q13 5 82.5 -11t117 -16t65 -9.5t27 -7.5t5.5 -3.5t-30.5 -17t-34.5 -8t-19.5 -4t-19 -3.5t-19 -4t-59.5 -8t-96 -9t-71 -16.5t-31 -5.5t-60.5 -8.5t-94.5 -26t-57.5 2t-39.5 33.5z" />
<glyph unicode="&#x2013;" />
<glyph unicode="&#x2014;" horiz-adv-x="2048" />
<glyph unicode="&#x2018;" horiz-adv-x="455" />
<glyph unicode="&#x2019;" horiz-adv-x="455" />
<glyph unicode="&#x201a;" horiz-adv-x="455" />
<glyph unicode="&#x201c;" horiz-adv-x="682" />
<glyph unicode="&#x201d;" horiz-adv-x="682" />
<glyph unicode="&#x201e;" horiz-adv-x="682" />
<glyph unicode="&#x2022;" horiz-adv-x="717" />
<glyph unicode="&#x2026;" horiz-adv-x="2048" />
<glyph unicode="&#x202f;" horiz-adv-x="366" />
<glyph unicode="&#x2039;" horiz-adv-x="682" />
<glyph unicode="&#x203a;" horiz-adv-x="682" />
<glyph unicode="&#x205f;" horiz-adv-x="457" />
<glyph unicode="&#x20ac;" horiz-adv-x="1238" d="M-46 932q-4 16 14 40t70 36t202 16t194 58t60 68t38 24t91.5 52.5t219.5 71.5q151 30 179 24t44 -4t52 -8t56 -22t38 -28t32 -34t16 -34t-4 -30t-20 -14t-24 6t-54 18t-74 18t-44 6t-108 -10t-138 -26t-86 -40t-82 -48t-44 -46t26 -24t196 -24.5t174 -34.5t-20 -30 t-64 -24t-162 0.5t-158 2.5t-48 -16t-13.5 -23.5t16 -16t159.5 -12.5t228 -22t96 -14.5t16 -16t-10 -33.5t-18 -20t-60 -6t-74 -2t-132 -6t-130 -22t-10 -38t22 -42t48 -50t70 -42t124 13t131 48.5t149 112t-1 -7.5t-129 -118t-36 -39t-68 -53t-102 -52t-78 -12t-76 20 t-64 32t-71.5 58t-75.5 110t-114.5 78t-106.5 30t-4 40t30 34t76 22t52 34t-30 28t-56 4t-114 -8t-110 -16t-52 -2t-38 28t-16 38z" />
<glyph unicode="&#x2122;" horiz-adv-x="1257" d="M117 1492q10 32 114 46t134 22t54 24t50 14t28 -14t30 -16t46 -2t36 -2t28 -16t-4 -16t-36 -22t-80 -28t-64 -8t-26 -16t-44 -34t-44 -36t-44 -70t-38 -92t22 -30t42 8t-2 -28t-34 -38t-56 -20t-54 20t-10 82t40 110t32 76t-36 24t-68 16t-16 46zM533.5 1199 q-2.5 21 15.5 51t62 86t69 100t38 60t31 14t36 -14t34 -46t20 -58t2 -40t2 -24t56 26t67.5 39.5t28 20t25 26t32 18t37 2t28 -22t16.5 -61.5t-6 -150t-8 -128t3.5 -41t-20 -28t-37 -5.5t-30 20t-16.5 22.5t-6 26t8 76t6 76t0 40t0 28t-28 -4t-80 -56t-71.5 -54t-36 -10 t-40.5 30t-32 62t-88 -40t-95.5 -67t-22 26z" />
<glyph unicode="&#xe000;" horiz-adv-x="945" d="M0 0v945h945v-945h-945z" />
<glyph unicode="&#xfb01;" horiz-adv-x="1024" />
<glyph unicode="&#xfb02;" horiz-adv-x="1024" />
</font>
</defs>
</svg>
